<svg xmlns="http://www.w3.org/2000/svg" version="1.1"
    xmlns:xlink="http://www.w3.org/1999/xlink" width="512" height="512" x="0" y="0" viewBox="0 0 512 512" style="enable-background:new 0 0 512 512" xml:space="preserve" class="">
    <g>
        <path fill="#fef1da" d="m183.797 289.442-30.456 17.584 59.322 15.895 10.901-10.901a3.822 3.822 0 0 1 5.406 0l15.387 15.387 5.902-5.902a3.822 3.822 0 0 1 5.406 0l14.341 14.341 14.341-14.341a3.822 3.822 0 0 1 5.406 0l15.675 15.675.793-.793c-2.069-16.147.649-32.789 8.192-47.618a51.06 51.06 0 0 0-11.323-3.244c-17.391-2.86-34.171 3.442-45.416 15.368a50.76 50.76 0 0 0-25.103-11.763 51.107 51.107 0 0 0-12.481-.507c-3.124-21.39-19.726-39.246-42.194-42.941-13.228-2.175-26.098.958-36.453 7.827l42.356 24.454c4.415 2.552 4.415 8.928-.002 11.479z" opacity="1" data-original="#fef1da"></path>
        <path fill="#bbf49b" d="M354.869 351.358c-5.827-18.221-5.117-38.075 2.119-55.899l-22.833-22.833c-2.606-2.605-6.887-2.426-9.269.385-18.206 21.479-23.56 50.118-16.099 75.825a36.87 36.87 0 0 1 11.719-1.909c10.118 0 19.283 4.068 25.959 10.653a37.12 37.12 0 0 1 8.404-6.222z" opacity="1" data-original="#bbf49b"></path>
        <path fill="#d7f8c4" d="m486.208 379.63-27.054-27.054c-2.155-2.155-5.562-2.478-8.042-.708-12.241 8.736-29.401 7.615-40.38-3.364s-12.1-28.138-3.364-40.38c1.77-2.481 1.447-5.887-.708-8.042l-27.054-27.054c-2.606-2.605-6.887-2.426-9.269.385-18.708 22.071-23.86 51.704-15.468 77.945a36.781 36.781 0 0 1 17.555-4.431c20.419 0 36.972 16.553 36.972 36.972 0 1.174-.061 2.333-.168 3.479h77.901c1.474-2.412 1.195-5.632-.921-7.748z" opacity="1" data-original="#d7f8c4" class=""></path>
        <path fill="#ffe177" d="M65.954 357.478c-4.417 2.55-9.939-.638-9.939-5.738v-13.425l-31.839 8.531c-4.927 1.32-6.577 7.479-2.97 11.086l29.446 29.446h58.763l-12.761-47.624z" opacity="1" data-original="#ffe177"></path>
        <path fill="#ffc344" d="M85.791 299.215c-1.32-4.927 3.188-9.435 8.115-8.115l59.435 15.926 30.456-17.584c4.417-2.55 4.417-8.926 0-11.477L65.954 209.928c-4.417-2.55-9.939.638-9.939 5.738V351.74c0 5.101 5.522 8.289 9.939 5.738l30.699-17.724z" opacity="1" data-original="#ffc344"></path>
        <path fill="#feb137" d="m89.999 223.811-24.045-13.882c-4.417-2.55-9.939.638-9.939 5.738V351.74c0 5.101 5.522 8.289 9.939 5.738l24.045-13.882z" opacity="1" data-original="#feb137"></path>
        <path fill="#ffe177" d="M179.697 383.899c0-18.08 12.981-33.119 30.129-36.329h-.001l-8.203-8.203a3.822 3.822 0 0 1 0-5.406l11.04-11.04L93.906 291.1c-4.927-1.32-9.435 3.188-8.115 8.115l23.623 88.163h68.925l1.424-1.424a35.891 35.891 0 0 1-.066-2.055z" opacity="1" data-original="#ffe177"></path>
        <path fill="#ffd15b" d="M109.414 387.378h33.741l-23.623-88.163a6.736 6.736 0 0 1-.203-1.303L93.906 291.1c-4.927-1.32-9.435 3.188-8.115 8.115z" opacity="1" data-original="#ffd15b"></path>
        <path fill="#f6c2e0" d="M209.825 347.57a37.096 37.096 0 0 1 6.844-.643 36.78 36.78 0 0 1 20.486 6.196l13.756-13.756a3.822 3.822 0 0 0 0-5.406L228.97 312.02a3.822 3.822 0 0 0-5.406 0l-21.941 21.941a3.822 3.822 0 0 0 0 5.406z" opacity="1" data-original="#f6c2e0"></path>
        <path fill="#f28cc4" d="M242.628 357.58c6.676-6.585 15.841-10.653 25.959-10.653 3.302 0 6.5.44 9.545 1.253a3.82 3.82 0 0 0-.528-4.734l-21.941-21.941a3.822 3.822 0 0 0-5.406 0l-21.941 21.941a3.818 3.818 0 0 0-.045 5.351 36.98 36.98 0 0 1 14.357 8.783z" opacity="1" data-original="#f28cc4"></path>
        <path fill="#f6c2e0" d="M268.587 346.927c10.118 0 19.283 4.068 25.959 10.653a36.906 36.906 0 0 1 17.859-9.751 3.81 3.81 0 0 0-.713-4.383l-21.941-21.941a3.822 3.822 0 0 0-5.406 0l-21.941 21.941a3.823 3.823 0 0 0-.833 4.154 37.123 37.123 0 0 1 7.016-.673z" opacity="1" data-original="#f6c2e0"></path>
        <path fill="#f28cc4" d="M302.133 351.824a36.77 36.77 0 0 1 18.373-4.897 36.788 36.788 0 0 1 22.341 7.527l5.602-5.602a3.822 3.822 0 0 0 0-5.406l-21.941-21.941a3.822 3.822 0 0 0-5.406 0l-21.941 21.941a3.822 3.822 0 0 0 0 5.406z" opacity="1" data-original="#f28cc4"></path>
        <path fill="#fd5426" d="M409.228 387.378c.107-1.146.168-2.305.168-3.479 0-20.419-16.553-36.972-36.972-36.972-10.118 0-19.283 4.068-25.959 10.653-6.676-6.585-15.841-10.653-25.959-10.653s-19.283 4.068-25.959 10.653c-6.676-6.585-15.841-10.653-25.959-10.653s-19.283 4.068-25.959 10.653c-6.676-6.585-15.841-10.653-25.959-10.653-20.419 0-36.972 16.553-36.972 36.972 0 1.174.061 2.333.168 3.479z" opacity="1" data-original="#fd5426"></path>
        <path fill="#ef4424" d="M214.086 386.378a37.696 37.696 0 0 1-.087-2.479c0-14.227 8.04-26.569 19.82-32.751a36.773 36.773 0 0 0-17.149-4.221c-20.419 0-36.972 16.553-36.972 36.972 0 .834.038 1.659.092 2.479z" opacity="1" data-original="#ef4424"></path>
        <path fill="#ffc344" d="m7.916 393.427 38.157 88.688a10.105 10.105 0 0 0 9.283 6.112h401.287c4.037 0 7.687-2.403 9.283-6.112l38.157-88.688c1.435-3.335-1.011-7.049-4.641-7.049H12.557c-3.63 0-6.076 3.715-4.641 7.049z" opacity="1" data-original="#ffc344"></path>
        <path fill="#feb137" d="m110.573 482.116-38.157-88.688c-1.435-3.335 1.011-7.049 4.641-7.049h-64.5c-3.63 0-6.076 3.715-4.641 7.049l38.157 88.688a10.107 10.107 0 0 0 9.283 6.112h64.5a10.107 10.107 0 0 1-9.283-6.112z" opacity="1" data-original="#feb137"></path>
        <path fill="#d7f8c4" d="M204.498 148.753c.646 0 1.242.344 1.564.903l15.395 26.775a19.939 19.939 0 0 1 3.042 10.599c0 11.028-8.971 19.999-20.001 19.999-11.026 0-19.999-8.971-19.999-19.999 0-3.756 1.053-7.421 3.04-10.599l15.399-26.775a1.8 1.8 0 0 1 1.56-.903zM265.498 204.728c.646 0 1.242.344 1.564.903l15.395 26.775a19.939 19.939 0 0 1 3.042 10.599c0 11.028-8.971 19.999-20.001 19.999-11.026 0-19.999-8.971-19.999-19.999 0-3.756 1.053-7.421 3.04-10.599l15.399-26.775a1.8 1.8 0 0 1 1.56-.903z" opacity="1" data-original="#d7f8c4" class=""></path>
        <path fill="#68ca44" d="M255.999 23.773c-49.274 0-89.551 39.256-91.199 88.136a3.011 3.011 0 0 0 3.004 3.116h176.39a3.01 3.01 0 0 0 3.004-3.116c-1.648-48.88-41.925-88.136-91.199-88.136z" opacity="1" data-original="#68ca44" class=""></path>
        <path fill="#d7f8c4" d="M322.251 115.024c0-36.531-29.721-66.251-66.252-66.251s-66.252 29.72-66.252 66.251z" opacity="1" data-original="#d7f8c4" class=""></path>
        <path fill="#bbf49b" d="M290.998 108.901c.646 0 1.242.344 1.564.903l15.395 26.775a19.939 19.939 0 0 1 3.042 10.599c0 11.028-8.971 19.999-20.001 19.999-11.026 0-19.999-8.971-19.999-19.999 0-3.756 1.053-7.421 3.04-10.599l15.399-26.775a1.8 1.8 0 0 1 1.56-.903z" opacity="1" data-original="#bbf49b"></path>
        <path fill="#68ca44" d="m62.041 421.643-17.444 30.213c-1.155 2 .289 4.5 2.598 4.5h34.887c2.309 0 3.753-2.5 2.598-4.5l-17.444-30.213c-1.154-2-4.041-2-5.195 0z" opacity="1" data-original="#68ca44" class=""></path>
        <path fill="#fd5426" d="m125.827 421.643-17.444 30.213c-1.155 2 .289 4.5 2.598 4.5h34.887c2.309 0 3.753-2.5 2.598-4.5l-17.444-30.213c-1.153-2-4.04-2-5.195 0z" opacity="1" data-original="#fd5426"></path>
        <path fill="#ffffff" d="m189.614 421.643-17.444 30.213c-1.155 2 .289 4.5 2.598 4.5h34.887c2.309 0 3.753-2.5 2.598-4.5l-17.444-30.213c-1.153-2-4.04-2-5.195 0z" opacity="1" data-original="#ffffff"></path>
        <path fill="#68ca44" d="m253.401 421.643-17.444 30.213c-1.155 2 .289 4.5 2.598 4.5h34.887c2.309 0 3.753-2.5 2.598-4.5l-17.444-30.213c-1.154-2-4.04-2-5.195 0z" opacity="1" data-original="#68ca44" class=""></path>
        <path fill="#fd5426" d="m317.188 421.643-17.444 30.213c-1.155 2 .289 4.5 2.598 4.5h34.887c2.309 0 3.753-2.5 2.598-4.5l-17.444-30.213c-1.154-2-4.041-2-5.195 0z" opacity="1" data-original="#fd5426"></path>
        <path fill="#ffffff" d="m380.974 421.643-17.444 30.213c-1.155 2 .289 4.5 2.598 4.5h34.887c2.309 0 3.753-2.5 2.598-4.5l-17.444-30.213c-1.153-2-4.04-2-5.195 0z" opacity="1" data-original="#ffffff"></path>
        <path fill="#68ca44" d="m444.761 421.643-17.444 30.213c-1.155 2 .289 4.5 2.598 4.5h34.887c2.309 0 3.753-2.5 2.598-4.5l-17.444-30.213c-1.153-2-4.04-2-5.195 0z" opacity="1" data-original="#68ca44" class=""></path>
        <path d="M89.892 265.15v-7.951c0-4.143-3.358-7.5-7.5-7.5s-7.5 3.357-7.5 7.5v7.951c0 4.143 3.358 7.5 7.5 7.5s7.5-3.357 7.5-7.5zM123.451 323.138l-5.623 5.622a7.5 7.5 0 0 0 5.304 12.803 7.477 7.477 0 0 0 5.303-2.196l5.623-5.622a7.5 7.5 0 0 0-10.607-10.607zM159.06 334.383l-5.623 5.622a7.5 7.5 0 0 0 5.304 12.803 7.477 7.477 0 0 0 5.303-2.196l5.623-5.622a7.5 7.5 0 0 0-10.607-10.607z" fill="#000000" opacity="1" data-original="#000000" class=""></path>
        <path d="M509.928 384.528a12.518 12.518 0 0 0-10.484-5.65h-4.924a13.774 13.774 0 0 0-3.008-4.552l-27.054-27.054c-4.782-4.78-12.227-5.417-17.703-1.509-9.519 6.795-22.439 5.718-30.719-2.563-8.279-8.278-9.357-21.198-2.563-30.719 3.908-5.475 3.273-12.92-1.509-17.703l-27.055-27.055a13.829 13.829 0 0 0-10.327-4.028 13.843 13.843 0 0 0-9.966 4.868 89.26 89.26 0 0 0-9.792 14.123l-15.365-15.365a13.855 13.855 0 0 0-10.327-4.028 13.846 13.846 0 0 0-9.967 4.867 89.396 89.396 0 0 0-8.231 11.467 58.333 58.333 0 0 0-6.629-1.503 58.451 58.451 0 0 0-47.131 12.938 58.443 58.443 0 0 0-23.388-9.333 58.73 58.73 0 0 0-7.615-.746c-5.833-22.121-24.035-38.915-47.061-42.701-13.465-2.214-26.62.395-37.722 6.537l-71.685-41.387c-4.423-2.555-9.704-2.555-14.125-.001-4.423 2.554-7.064 7.127-7.064 12.234v116.894l-26.28 7.042c-4.933 1.321-8.667 5.056-9.988 9.988s.045 10.033 3.656 13.646l15.642 15.642H12.557c-4.236 0-8.155 2.112-10.484 5.65s-2.72 7.973-1.046 11.863l38.157 88.688a17.589 17.589 0 0 0 16.172 10.648H145c4.142 0 7.5-3.357 7.5-7.5s-3.358-7.5-7.5-7.5H55.355a2.603 2.603 0 0 1-2.393-1.576l-6.605-15.351c.279.022.555.056.837.056h34.887c3.739 0 7.224-2.012 9.093-5.25a10.527 10.527 0 0 0 0-10.5l-17.443-30.213c-1.87-3.238-5.354-5.25-9.093-5.25s-7.224 2.012-9.093 5.25l-16.582 28.721-22.689-52.736h323.725c4.142 0 7.5-3.357 7.5-7.5s-3.358-7.5-7.5-7.5H187.634c2.391-13.867 14.497-24.451 29.036-24.451 7.792 0 15.14 3.017 20.692 8.493a7.5 7.5 0 0 0 10.534 0c5.552-5.477 12.9-8.493 20.692-8.493s15.14 3.017 20.692 8.493a7.502 7.502 0 0 0 10.534 0c5.553-5.477 12.902-8.493 20.693-8.493 7.792 0 15.14 3.017 20.692 8.493a7.5 7.5 0 0 0 10.534 0c5.552-5.477 12.901-8.493 20.692-8.493 14.539 0 26.645 10.585 29.036 24.451h-26.458c-4.142 0-7.5 3.357-7.5 7.5s3.358 7.5 7.5 7.5h120.725l-22.69 52.739-16.583-28.723c-1.87-3.238-5.354-5.25-9.093-5.25s-7.224 2.012-9.093 5.25l-17.443 30.213a10.527 10.527 0 0 0 0 10.5 10.529 10.529 0 0 0 9.093 5.25h34.887c.283 0 .56-.033.84-.056l-6.605 15.352a2.603 2.603 0 0 1-2.393 1.575H180.001c-4.142 0-7.5 3.357-7.5 7.5s3.358 7.5 7.5 7.5h276.644c7.042 0 13.39-4.18 16.172-10.648l38.157-88.687a12.52 12.52 0 0 0-1.046-11.864zM64.639 432.144l9.649 16.713H54.989zm265.139-153.289 18.491 18.491c-3.328 9.733-4.951 20.053-4.766 30.548l-11.694-11.693c-4.413-4.412-11.595-4.412-16.011 0l-2.43 2.43a74.065 74.065 0 0 1 16.41-39.776zm-153.101-25.771c18.778 3.088 33.241 17.806 35.99 36.624a7.496 7.496 0 0 0 8.034 6.391 43.703 43.703 0 0 1 10.651.433 43.404 43.404 0 0 1 21.407 10.028 7.501 7.501 0 0 0 10.371-.521c9.958-10.562 24.438-15.465 38.742-13.112.763.125 1.517.276 2.263.44a89.195 89.195 0 0 0-5.864 26.051l-3.216-3.216c-4.414-4.414-11.596-4.412-16.011 0l-9.038 9.038-9.039-9.039c-4.414-4.412-11.596-4.411-16.011.001l-.598.599-10.082-10.082c-2.139-2.139-4.982-3.317-8.007-3.317s-5.869 1.179-8.006 3.316l-7.839 7.839-37.651-10.089 14.775-8.531c4.422-2.553 7.063-7.125 7.063-12.231 0-5.107-2.64-9.682-7.062-12.235l-29.896-17.26a43.156 43.156 0 0 1 19.024-1.127zm45.034 86.628a45.104 45.104 0 0 0-5.042-.285c-1.409 0-2.802.073-4.178.202l-2.965-2.965 16.74-16.74 7.483 7.483-10.735 10.736a11.455 11.455 0 0 0-1.303 1.569zm-41.667-55.254.003.002-.003-.002zM63.515 217.181l115.221 66.522-26.455 15.274-16.526-4.428a7.498 7.498 0 0 0 4.496-6.87v-7.951c0-4.143-3.358-7.5-7.5-7.5s-7.5 3.357-7.5 7.5v7.951c0 1.668.551 3.204 1.473 4.45l-30.876-8.273c-4.932-1.32-10.033.044-13.645 3.656-3.611 3.61-4.978 8.712-3.656 13.645l9.373 34.98-24.404 14.09V217.181zm16.636 151.786-5.623-5.622a7.475 7.475 0 0 0-1.619-1.222l19.029-10.986 7.433 27.741H80.758a7.497 7.497 0 0 0-.607-9.911zm-52.572-15.268 20.936-5.61v3.651c0 5.106 2.64 9.68 7.062 12.233a14.114 14.114 0 0 0 6.679 1.902 7.501 7.501 0 0 0 1.665 8.076l4.926 4.926h-16.09zm144.909 25.179h-16.645a7.451 7.451 0 0 0-2.107-4.2 7.5 7.5 0 0 0-10.607-.001l-4.202 4.201h-24.028l-21.474-80.142 104.747 28.067-1.854 1.854c-4.35 4.35-4.405 11.383-.182 15.812-12.801 6.694-21.957 19.434-23.648 34.409zm70.14-31.094a44.272 44.272 0 0 0-4.952-3.091l15.284-15.285 6.438 6.438-2.296 2.296a11.305 11.305 0 0 0-2.372 3.482 44.114 44.114 0 0 0-12.102 6.16zm33.722-7.676 10.699-10.7 7.772 7.772-.962.962a11.232 11.232 0 0 0-3.273 7.099 44.015 44.015 0 0 0-14.236-5.133zm36.833-.078 10.621-10.622 13.165 13.166a44.4 44.4 0 0 0-16.464-3.147c-2.477 0-4.923.207-7.322.603zm59.241-.603c-4.273 0-8.455.607-12.453 1.768a74.117 74.117 0 0 1-1.449-11.961c-.707-18.24 5.218-35.935 16.708-49.977l25.41 25.41c-10.374 15.418-8.435 35.917 4.79 49.141s33.723 15.162 49.139 4.789l20.282 20.281h-58.245c-2.504-22.166-21.358-39.451-44.182-39.451zm65.286 109.429 9.649-16.713 9.649 16.713zM204.498 141.253a9.315 9.315 0 0 0-8.062 4.664l-15.335 26.664a27.457 27.457 0 0 0-4.103 14.449c0 15.163 12.336 27.499 27.499 27.499 15.164 0 27.501-12.336 27.501-27.499a27.436 27.436 0 0 0-4.105-14.45l-15.333-26.667a9.325 9.325 0 0 0-8.062-4.66zm10.602 39.158a12.454 12.454 0 0 1 1.898 6.619c0 6.892-5.608 12.499-12.501 12.499-6.892 0-12.499-5.607-12.499-12.499 0-2.346.657-4.636 1.899-6.623.049-.078.097-.157.143-.237l10.458-18.185 10.456 18.184c.048.082.097.163.146.242z" fill="#000000" opacity="1" data-original="#000000" class=""></path>
        <path d="M273.561 201.889a9.328 9.328 0 0 0-8.063-4.66 9.315 9.315 0 0 0-8.062 4.664l-15.335 26.664a27.457 27.457 0 0 0-4.103 14.449c0 15.163 12.336 27.499 27.499 27.499 15.164 0 27.501-12.336 27.501-27.499a27.436 27.436 0 0 0-4.105-14.45zm-8.063 53.616c-6.892 0-12.499-5.607-12.499-12.499 0-2.346.657-4.636 1.899-6.623.049-.078.097-.157.143-.237l10.458-18.185 10.456 18.184c.047.082.096.163.146.242a12.454 12.454 0 0 1 1.898 6.619c0 6.891-5.608 12.499-12.501 12.499zM167.804 122.524h105.667l-5.869 10.205a27.457 27.457 0 0 0-4.103 14.449c0 15.163 12.336 27.499 27.499 27.499 15.164 0 27.501-12.336 27.501-27.499a27.436 27.436 0 0 0-4.105-14.45l-5.867-10.204h35.667a10.56 10.56 0 0 0 7.55-3.203 10.57 10.57 0 0 0 2.95-7.666c-.864-25.63-11.524-49.613-30.017-67.531-18.537-17.96-42.927-27.852-68.678-27.852a98.337 98.337 0 0 0-52.82 15.349 7.5 7.5 0 0 0 8.044 12.661 83.357 83.357 0 0 1 44.776-13.009c21.834 0 42.517 8.39 58.24 23.624 14.566 14.114 23.404 32.655 25.179 52.628h-10.047c-3.77-37.158-35.237-66.252-73.373-66.252s-69.603 29.094-73.373 66.252H172.58c1.322-14.822 6.562-28.961 15.286-41.142a7.501 7.501 0 0 0-12.195-8.735c-11.359 15.86-17.71 34.536-18.366 54.006a10.571 10.571 0 0 0 2.95 7.667 10.554 10.554 0 0 0 7.549 3.203zm123.194 37.154c-6.892 0-12.499-5.607-12.499-12.499 0-2.346.657-4.636 1.899-6.623.049-.078.097-.157.143-.237l10.458-18.185 10.456 18.184c.047.082.096.163.146.242a12.454 12.454 0 0 1 1.898 6.619c0 6.891-5.608 12.499-12.501 12.499zm23.276-52.154h-14.372l-.841-1.463a9.328 9.328 0 0 0-8.063-4.66 9.315 9.315 0 0 0-8.062 4.664l-.839 1.459h-7.992l28.376-28.376c6.238 8.063 10.437 17.78 11.793 28.376zm-50.775-50.762c10.595 1.357 20.311 5.545 28.373 11.782l-28.373 28.374zm-15 0v40.156l-28.373-28.374c8.062-6.237 17.778-10.426 28.373-11.782zm-38.983 22.386 28.376 28.376h-40.169c1.357-10.597 5.556-20.313 11.793-28.376zM137.518 417.894a10.53 10.53 0 0 0-9.094-5.25 10.527 10.527 0 0 0-9.092 5.25v.001l-17.443 30.212c-1.87 3.238-1.87 7.262 0 10.5s5.354 5.25 9.093 5.25h34.887c3.739 0 7.224-2.012 9.093-5.25s1.87-7.262 0-10.5zm-18.742 30.962 9.649-16.713 9.649 16.713zM209.656 463.856c3.739 0 7.224-2.012 9.093-5.25s1.87-7.262 0-10.5l-17.443-30.213c-1.87-3.238-5.354-5.25-9.093-5.25s-7.224 2.012-9.093 5.25l-17.444 30.214a10.53 10.53 0 0 0 .001 10.5 10.531 10.531 0 0 0 9.093 5.249zm-17.444-31.712 9.649 16.713h-19.299zM238.556 463.856h34.887c3.739 0 7.224-2.012 9.093-5.25s1.87-7.262 0-10.5l-17.443-30.213c-1.87-3.238-5.354-5.25-9.093-5.25s-7.224 2.012-9.093 5.25l-17.443 30.213c-1.87 3.238-1.87 7.262 0 10.5s5.352 5.25 9.092 5.25zm17.443-31.712 9.649 16.713h-19.299zM302.342 463.856h34.887c3.739 0 7.223-2.012 9.093-5.249a10.53 10.53 0 0 0 0-10.501l-17.444-30.213c-1.87-3.238-5.354-5.25-9.093-5.25s-7.224 2.012-9.093 5.25l-17.443 30.213c-1.87 3.238-1.87 7.262 0 10.5s5.354 5.25 9.093 5.25zm17.443-31.712 9.649 16.713h-19.299zM366.129 463.856h34.887c3.739 0 7.224-2.012 9.093-5.25s1.87-7.262 0-10.5l-17.443-30.212a10.528 10.528 0 0 0-9.092-5.251h-.001a10.529 10.529 0 0 0-9.093 5.25l-17.444 30.213c-1.87 3.238-1.87 7.262 0 10.5s5.353 5.25 9.093 5.25zm17.444-31.712 9.649 16.713h-19.298z" fill="#000000" opacity="1" data-original="#000000" class=""></path>
    </g>
</svg>