<svg xmlns="http://www.w3.org/2000/svg" version="1.1" xmlns:xlink="http://www.w3.org/1999/xlink" width="512" height="512" x="0" y="0" viewBox="0 0 512 512" style="enable-background:new 0 0 512 512" xml:space="preserve" class=""><g><path fill="#537983" d="m409.815 12.768-55.432 33.089C268.448 5.631 162.937 20.996 91.967 91.966S5.632 268.448 45.857 354.383l-33.089 55.432c-8.729 14.624-6.408 33.308 5.635 45.351l38.431 38.431c12.043 12.043 30.727 14.364 45.351 5.635l55.432-33.089c85.935 40.225 191.447 24.861 262.417-46.109s86.335-176.482 46.11-262.417l33.089-55.432c8.729-14.623 6.408-33.308-5.635-45.351l-38.431-38.431c-12.044-12.043-30.728-14.365-45.352-5.635z" opacity="1" data-original="#537983"></path><g fill="#fff"><path d="m424.702 47.299-33.654 20.063a233.522 233.522 0 0 1 28.985 24.604 233.6 233.6 0 0 1 24.588 28.962l20.075-33.63a6.213 6.213 0 0 0-.942-7.579l-31.476-31.476a6.214 6.214 0 0 0-7.576-.944zM91.967 420.033a233.6 233.6 0 0 1-24.588-28.962l-20.075 33.63a6.213 6.213 0 0 0 .942 7.579l31.474 31.474a6.213 6.213 0 0 0 7.579.942l33.63-20.075a233.6 233.6 0 0 1-28.962-24.588z" fill="#ffffff" opacity="1" data-original="#ffffff"></path></g><circle cx="256" cy="256" r="194.694" fill="#fe7d43" opacity="1" data-original="#fe7d43"></circle><path fill="#fd6930" d="M179.716 393.669c-75.911-75.911-75.911-199.427 0-275.339 30.14-30.14 67.787-48.3 106.977-54.506-59.515-9.424-122.591 8.735-168.363 54.506-75.911 75.911-75.911 199.428 0 275.339 45.771 45.771 108.848 63.931 168.362 54.506-39.189-6.206-76.836-24.366-106.976-54.506z" opacity="1" data-original="#fd6930"></path><path fill="#d6694b" d="M251.263 163.792h-27.435c-7.576 0-13.718 6.141-13.718 13.717v27.435c0 .077.01.152.011.229 5.285-.287 10.667 1.554 14.681 5.569a19.081 19.081 0 0 1 4.756 7.92h21.704c7.576 0 13.717-6.141 13.717-13.717V177.51c.001-7.577-6.14-13.718-13.716-13.718z" opacity="1" data-original="#d6694b"></path><path fill="#bbf49b" d="M340.94 227.972a45.776 45.776 0 0 1 23.757-9.002 24.12 24.12 0 0 0-2.145-14.459c-5.272-10.791-17.543-15.924-28.694-12.61-2.26.672-4.671-.421-5.706-2.539l-5.108-10.456c-15.984-.423-32.053 5.155-44.531 16.618a4.88 4.88 0 0 0-.011 7.176l21.745 20.076c1.732 1.599 4.375 1.744 6.238.299 9.192-7.13 22.489-6.792 31.313 1.354a24.273 24.273 0 0 1 3.142 3.543z" opacity="1" data-original="#bbf49b" class=""></path><path fill="#d7f8c4" d="M333.858 191.901c11.151-3.314 23.422 1.82 28.694 12.61a24.12 24.12 0 0 1 2.145 14.459c12.998-1.069 26.362 3.358 36.306 13.302.205.205.395.418.595.626 4.266-14.616 3.319-30.803-3.891-45.561-14.586-29.855-49.523-43.121-79.934-31.25a4.88 4.88 0 0 0-2.611 6.684l12.991 26.591c1.034 2.118 3.445 3.21 5.705 2.539z" opacity="1" data-original="#d7f8c4"></path><path fill="#fef1da" d="M224.803 210.742c-7.492-7.492-19.751-7.492-27.243 0l-10.546 10.546c-7.372 7.372-7.473 19.35-.337 26.869h13.615c3.642 0 6.944 1.429 9.4 3.745a19.064 19.064 0 0 0 4.565-3.372l10.546-10.546c7.491-7.491 7.491-19.751 0-27.242z" opacity="1" data-original="#fef1da"></path><path fill="#fae2c0" d="m279.288 278.409-10.546 10.546c-7.492 7.492-19.751 7.492-27.243 0-7.492-7.492-7.492-19.751 0-27.243l10.546-10.546c7.492-7.492 19.751-7.492 27.243 0 7.492 7.492 7.492 19.751 0 27.243zM298.622 143.074l-10.546 10.546c-7.492 7.492-19.751 7.492-27.243 0-7.492-7.492-7.492-19.751 0-27.243l10.546-10.546c7.492-7.492 19.751-7.492 27.243 0 7.491 7.492 7.491 19.751 0 27.243z" opacity="1" data-original="#fae2c0"></path><path fill="#fef1da" d="M159.14 289.309v-.654a19.069 19.069 0 0 0-5.926-.949H138.3c-10.595 0-19.263 8.669-19.263 19.264 0 10.595 8.668 19.263 19.263 19.263h14.914c10.595 0 19.264-8.669 19.264-19.263 0-1.366-.149-2.697-.423-3.984-7.201-.418-12.915-6.372-12.915-13.677z" opacity="1" data-original="#fef1da"></path><path fill="#fcd1e8" d="M258.636 393.971c-17.958-17.958-17.958-47.073 0-65.031.395-.394.804-.763 1.209-1.14-17.895-12.169-42.465-10.331-58.331 5.534-17.958 17.958-17.958 47.073 0 65.031 17.564 17.564 45.795 17.938 63.827 1.144a46.18 46.18 0 0 1-6.705-5.538z" opacity="1" data-original="#fcd1e8"></path><path fill="#f6c2e0" d="M227.47 398.365c-17.958-17.958-17.958-47.073 0-65.031a45.771 45.771 0 0 1 19.538-11.605c-15.614-4.577-33.177-.711-45.494 11.605-17.958 17.958-17.958 47.073 0 65.031 12.316 12.316 29.88 16.183 45.494 11.605a45.767 45.767 0 0 1-19.538-11.605z" opacity="1" data-original="#f6c2e0"></path><path fill="#fcd1e8" d="M309.607 355.304c-10.758-10.758-15.064-25.519-12.932-39.488-13.534-1.628-27.652 2.738-38.038 13.124-17.958 17.958-17.958 47.073 0 65.031s47.073 17.958 65.031 0a45.764 45.764 0 0 0 12.932-25.543c-9.866-1.187-19.422-5.553-26.993-13.124z" opacity="1" data-original="#fcd1e8"></path><path fill="#f6c2e0" d="M284.468 328.94a45.915 45.915 0 0 1 11.735-8.516 46.61 46.61 0 0 1 .469-4.593c-13.533-1.629-27.649 2.723-38.036 13.109-17.958 17.958-17.958 47.073 0 65.031 12.3 12.3 29.833 16.171 45.431 11.622a45.778 45.778 0 0 1-19.6-11.622c-17.957-17.958-17.957-47.073.001-65.031z" opacity="1" data-original="#f6c2e0"></path><path fill="#fcd1e8" d="M335.971 297.303a45.784 45.784 0 0 1-10.866-17.24 45.833 45.833 0 0 0-15.498 10.209c-17.958 17.958-17.958 47.073 0 65.031s47.073 17.958 65.031 0c12.924-12.924 16.546-31.627 10.867-47.792-16.548 6.583-36.143 3.184-49.534-10.208z" opacity="1" data-original="#fcd1e8"></path><path fill="#f6c2e0" d="M326.493 338.499c-15.07-15.07-17.487-37.995-7.263-55.593a45.95 45.95 0 0 0-9.623 7.367c-17.958 17.958-17.958 47.073 0 65.031s47.073 17.958 65.031 0a46.023 46.023 0 0 0 7.263-9.438c-17.573 10.1-40.39 7.651-55.408-7.367z" opacity="1" data-original="#f6c2e0"></path><circle cx="368.486" cy="264.788" r="45.984" fill="#fcd1e8" opacity="1" data-original="#fcd1e8"></circle><path fill="#f6c2e0" d="M352.492 271.53c-11.669-11.669-15.747-28.049-12.251-43.018a46.296 46.296 0 0 0-4.271 3.76c-17.958 17.958-17.958 47.073 0 65.031s47.073 17.958 65.031 0a45.762 45.762 0 0 0 12.251-22.014c-18.041 14.083-44.163 12.838-60.76-3.759z" opacity="1" data-original="#f6c2e0"></path><path fill="#fef1da" d="M200.577 163.656h-14.914c-10.595 0-19.264-8.669-19.264-19.264 0-10.595 8.669-19.264 19.264-19.264h14.914c10.595 0 19.264 8.669 19.264 19.264-.001 10.595-8.669 19.264-19.264 19.264z" opacity="1" data-original="#fef1da"></path><path fill="#fae2c0" d="M148.716 214.663v14.914c0 10.595-8.669 19.264-19.264 19.264-10.595 0-19.264-8.669-19.264-19.264v-14.914c0-10.595 8.669-19.264 19.264-19.264 10.596.001 19.264 8.669 19.264 19.264z" opacity="1" data-original="#fae2c0"></path><path fill="#d6694b" d="M200.292 303.026h-27.435c-7.576 0-13.717-6.142-13.717-13.717v-27.435c0-7.576 6.142-13.717 13.717-13.717h27.435c7.576 0 13.717 6.142 13.717 13.717v27.435c.001 7.576-6.141 13.717-13.717 13.717z" opacity="1" data-original="#d6694b"></path><path d="M498.9 51.531 460.469 13.1a44.638 44.638 0 0 0-54.499-6.772l-52.046 31.069c-43.169-19.344-90.652-25.424-137.597-17.582-49.339 8.244-94.175 31.359-129.664 66.848-35.488 35.488-58.603 80.325-66.846 129.664-7.844 46.944-1.763 94.428 17.581 137.596L6.329 405.971a44.637 44.637 0 0 0 6.771 54.498L51.531 498.9A44.617 44.617 0 0 0 83.126 512c7.86 0 15.777-2.075 22.903-6.328l52.047-31.069c28.618 12.824 59.11 19.802 90.699 20.751 4.138.118 7.597-3.132 7.722-7.271a7.5 7.5 0 0 0-7.271-7.721c-30.876-.928-60.628-7.997-88.431-21.01a7.499 7.499 0 0 0-7.024.352l-55.43 33.089a29.653 29.653 0 0 1-36.204-4.498l-38.431-38.431a29.655 29.655 0 0 1-4.499-36.204l33.089-55.432a7.505 7.505 0 0 0 .354-7.024c-19.363-41.365-25.6-87.149-18.039-132.405 7.725-46.239 29.392-88.263 62.659-121.53 33.266-33.266 75.291-54.934 121.53-62.659 45.257-7.56 91.042-1.323 132.405 18.039a7.502 7.502 0 0 0 7.024-.353l55.43-33.089a29.652 29.652 0 0 1 36.204 4.498l38.431 38.431a29.653 29.653 0 0 1 4.499 36.203l-33.089 55.432a7.505 7.505 0 0 0-.354 7.024c19.364 41.365 25.6 87.149 18.039 132.405-7.725 46.239-29.392 88.263-62.659 121.529-35.864 35.864-81.381 58.03-131.631 64.103a7.502 7.502 0 0 0-6.547 8.345c.498 4.113 4.245 7.044 8.345 6.546 53.615-6.479 102.178-30.127 140.439-68.388 35.488-35.488 58.603-80.325 66.846-129.664 7.844-46.944 1.763-94.428-17.581-137.596l31.069-52.048a44.63 44.63 0 0 0-6.77-54.496z" fill="#000000" opacity="1" data-original="#000000"></path><path d="M414.731 97.269a226.918 226.918 0 0 1 23.798 28.033 7.502 7.502 0 0 0 12.532-.53l20.075-33.63a13.699 13.699 0 0 0-2.077-16.726L437.582 42.94a13.703 13.703 0 0 0-16.719-2.083l-.002.001-33.654 20.063a7.498 7.498 0 0 0-.532 12.534 227.01 227.01 0 0 1 28.056 23.814zm12.952-43.015 30.06 30.06-13.849 23.2a241.502 241.502 0 0 0-18.559-20.851 241.463 241.463 0 0 0-20.866-18.571zM73.471 386.697a7.527 7.527 0 0 0-6.409-3.119 7.495 7.495 0 0 0-6.123 3.649l-20.075 33.63a13.698 13.698 0 0 0 2.077 16.726l31.474 31.474a13.696 13.696 0 0 0 16.728 2.079l33.63-20.076a7.5 7.5 0 0 0 .529-12.532 226.95 226.95 0 0 1-28.034-23.798h.001a227.013 227.013 0 0 1-23.798-28.033zm34.043 57.197-23.2 13.849-30.058-30.058 13.849-23.201c5.787 7.31 12 14.293 18.558 20.851h.001a241.137 241.137 0 0 0 20.85 18.559zM255.976 458.095c43.545 0 86.009-13.966 120.866-39.983a7.5 7.5 0 0 0-8.973-12.02c-35.656 26.613-79.938 39.598-124.654 36.571-45.158-3.059-87.626-22.343-119.582-54.298-72.987-72.987-72.987-191.746 0-264.733C158.931 88.336 205.94 68.896 256 68.896s97.069 19.439 132.366 54.737c34.481 34.48 53.909 80.388 54.706 129.268.796 48.763-17 95.174-50.108 130.683a7.5 7.5 0 0 0 .371 10.6 7.497 7.497 0 0 0 10.599-.371c35.769-38.363 54.994-88.493 54.135-141.157-.861-52.794-21.849-102.382-59.096-139.63C360.842 74.897 310.067 53.897 256 53.897c-54.063 0-104.844 21.001-142.973 59.13-78.834 78.835-78.834 207.11 0 285.945 34.522 34.521 80.397 55.352 129.175 58.657 4.598.312 9.192.466 13.774.466z" fill="#000000" opacity="1" data-original="#000000"></path><path d="M196.211 403.668c10.102 10.102 23.533 15.665 37.819 15.665 11.706 0 22.833-3.74 32.029-10.646a53.544 53.544 0 0 0 25.093 6.227c13.697 0 27.392-5.213 37.82-15.639a53.12 53.12 0 0 0 13.554-23.037c13.562-.101 27.092-5.306 37.417-15.63 10.101-10.102 15.665-23.533 15.665-37.819 0-3.824-.412-7.582-1.193-11.234a53.313 53.313 0 0 0 11.892-8.948c19.591-19.593 20.772-50.728 3.549-71.716a70.63 70.63 0 0 0-5.411-46.85 73.064 73.064 0 0 0-2.541-4.706 7.499 7.499 0 0 0-10.259-2.69 7.5 7.5 0 0 0-2.691 10.259 56.907 56.907 0 0 1 2.016 3.724c4.455 9.119 6.16 18.969 5.436 28.55a53.364 53.364 0 0 0-24.105-7.698 31.845 31.845 0 0 0-3.009-10.261c-6.501-13.307-21.093-20.239-35.343-17.084l-10.764-22.031c14.273-4.741 29.942-3.498 43.427 3.525a7.5 7.5 0 0 0 6.929-13.303c-18.177-9.466-39.495-10.643-58.492-3.226a12.412 12.412 0 0 0-7.031 7.031 12.413 12.413 0 0 0 .408 9.932l2.951 6.041c-14.12 1.988-27.328 8.153-37.936 17.898-.341.313-.658.646-.959.993v-13.484c0-4.147-1.214-8.008-3.279-11.28a27 27 0 0 0 5.255.52c6.853 0 13.708-2.609 18.925-7.826l10.545-10.546h-.001c5.041-5.04 7.816-11.761 7.816-18.924 0-7.164-2.775-13.885-7.815-18.924-10.435-10.435-27.415-10.435-37.85 0l-10.545 10.545c-9.631 9.631-10.365 24.832-2.219 35.322a21.342 21.342 0 0 0-2.049-.104h-26.723a26.59 26.59 0 0 0 2.801-11.9c0-14.757-12.006-26.763-26.763-26.763h-14.913c-14.757 0-26.763 12.006-26.763 26.763 0 14.758 12.006 26.763 26.763 26.763h14.913c1.04 0 2.065-.066 3.075-.182a21.127 21.127 0 0 0-1.041 6.536v21.509a26.543 26.543 0 0 0-10.353 6.42l-10.547 10.546c-6.687 6.687-9.067 16.056-7.182 24.673h-1.671c-11.699 0-21.217 9.518-21.217 21.217v18.333h-13.341c-14.757 0-26.762 12.006-26.762 26.763s12.005 26.763 26.762 26.763h14.914c13.551 0 24.775-10.126 26.52-23.207h20.559c11.699 0 21.217-9.518 21.217-21.217v-27.435c0-2.943-.605-5.747-1.693-8.298l10.289-10.289c4.761-4.761 7.342-10.884 7.759-17.126h13.398c10.969 0 20.021-8.368 21.107-19.056.326.386.669.759 1.043 1.105l21.745 20.075c4.457 4.115 11.153 4.415 15.922.715a16.68 16.68 0 0 1 18.772-1.174c-9.577 9.999-14.85 23.072-14.85 36.963 0 3.826.412 7.588 1.19 11.244a53.136 53.136 0 0 0-11.889 8.938c-6.519 6.519-11.135 14.43-13.598 23.058-11.127.091-22.22 3.619-31.547 10.592-7.644-4.081-16.217-6.254-25.128-6.254-14.286 0-27.717 5.563-37.819 15.665-20.856 20.85-20.856 54.781-.003 75.634zm69.926-271.988 10.545-10.545c2.293-2.293 5.305-3.44 8.318-3.44s6.025 1.146 8.318 3.44c2.207 2.207 3.423 5.161 3.423 8.318s-1.216 6.111-3.422 8.318h-.001l-10.545 10.546c-4.586 4.587-12.05 4.587-16.636 0-4.588-4.587-4.588-12.051 0-16.637zm-80.474 24.476c-6.487 0-11.764-5.278-11.764-11.764s5.277-11.764 11.764-11.764h14.913c6.487 0 11.764 5.277 11.764 11.764s-5.277 11.764-11.764 11.764zm-32.449 162.578H138.3c-6.486 0-11.763-5.278-11.763-11.764s5.277-11.764 11.763-11.764h14.192a21.297 21.297 0 0 0 12.31 13.721c-.937 5.557-5.77 9.807-11.588 9.807zm53.296-29.425a6.225 6.225 0 0 1-6.218 6.218h-27.435a6.225 6.225 0 0 1-6.218-6.218v-27.435a6.225 6.225 0 0 1 6.218-6.218h27.435a6.225 6.225 0 0 1 6.218 6.218zm12.989-56.627-10.072 10.072a21.042 21.042 0 0 0-9.134-2.096h-9.909c-2.51-4.48-1.872-10.261 1.933-14.066l10.547-10.546c2.206-2.206 5.16-3.422 8.318-3.422 3.157 0 6.111 1.215 8.317 3.422 4.587 4.585 4.587 12.049 0 16.636zm37.981-27.738a6.225 6.225 0 0 1-6.218 6.218h-16.806a26.676 26.676 0 0 0-4.351-5.723 26.511 26.511 0 0 0-12.495-7.045v-20.885a6.225 6.225 0 0 1 6.218-6.218h27.435a6.225 6.225 0 0 1 6.218 6.218v27.435zm6.46 183.724c-7.269-7.269-11.273-16.933-11.273-27.213s4.004-19.944 11.273-27.213c6.866-6.866 15.703-10.58 24.706-11.163.075 14.177 5.625 27.494 15.657 37.527a53.141 53.141 0 0 0 23.156 13.594 38.245 38.245 0 0 1-9.095 14.467c-15.002 15.004-39.418 15.007-54.424.001zm131.758-96.667c-15.002 15.003-39.418 15.005-54.424 0-7.269-7.269-11.273-16.933-11.273-27.213s4.004-19.944 11.273-27.213c7.502-7.503 17.357-11.254 27.211-11.254 9.855 0 19.71 3.751 27.213 11.254 15.006 15.005 15.006 39.42 0 54.426zm-91.947-76.197-18.016-16.633c9.462-7.83 21-12.026 32.699-12.616l2.979 6.097c2.66 5.449 8.791 8.159 14.58 6.438a16.702 16.702 0 0 1 19.819 8.713 16.777 16.777 0 0 1 1.497 4.713 53.226 53.226 0 0 0-15.192 5.751c-10.862-9.421-26.505-10.381-38.366-2.463zm11.159 79.772a38.327 38.327 0 0 1 6.563-5.253 53.693 53.693 0 0 0 9.195 12.284c10.427 10.426 24.123 15.639 37.818 15.639 3.918 0 7.833-.441 11.674-1.295.291 1.915.447 3.864.447 5.837 0 10.279-4.004 19.944-11.273 27.213-15.003 15.003-39.419 15.005-54.424 0-7.269-7.269-11.272-16.933-11.272-27.213 0-10.279 4.003-19.943 11.272-27.212zm-80.88 31.79c4.831 0 9.517.902 13.89 2.596-6.652 9.092-10.252 20.015-10.252 31.494 0 14.247 5.536 27.641 15.584 37.733-5.781 3.349-12.361 5.145-19.222 5.145-10.28 0-19.944-4.003-27.213-11.271-15.005-15.005-15.005-39.42 0-54.425 7.269-7.27 16.933-11.272 27.213-11.272z" fill="#000000" opacity="1" data-original="#000000"></path><path d="M284.591 245.864c-10.435-10.435-27.415-10.435-37.85 0l-10.545 10.545c-10.435 10.435-10.435 27.414 0 37.849 5.218 5.218 12.072 7.826 18.925 7.826s13.707-2.609 18.925-7.826l10.545-10.546h-.001c5.041-5.04 7.816-11.761 7.816-18.924 0-7.164-2.775-13.885-7.815-18.924zm-10.606 27.241c-.001.001-.001.001 0 0l-10.546 10.546c-4.586 4.587-12.05 4.587-16.636 0-4.588-4.587-4.588-12.05 0-16.637l10.545-10.545c2.293-2.293 5.305-3.44 8.318-3.44s6.025 1.146 8.318 3.44c2.207 2.207 3.423 5.161 3.423 8.318 0 3.158-1.216 6.112-3.422 8.318zM156.216 229.577v-14.914c0-14.758-12.006-26.763-26.763-26.763s-26.763 12.006-26.763 26.763v14.914c0 14.757 12.006 26.763 26.763 26.763s26.763-12.006 26.763-26.763zm-38.527 0v-14.914c0-6.487 5.277-11.764 11.764-11.764s11.764 5.278 11.764 11.764v14.914c0 6.487-5.277 11.764-11.764 11.764s-11.764-5.277-11.764-11.764z" fill="#000000" opacity="1" data-original="#000000"></path></g></svg>