<svg xmlns="http://www.w3.org/2000/svg" version="1.1" xmlns:xlink="http://www.w3.org/1999/xlink" width="512" height="512" x="0" y="0" viewBox="0 0 682.667 682.667" style="enable-background:new 0 0 512 512" xml:space="preserve" class=""><g><defs><clipPath id="a" clipPathUnits="userSpaceOnUse"><path d="M0 512h512V0H0Z" fill="#000000" opacity="1" data-original="#000000"></path></clipPath></defs><g clip-path="url(#a)" transform="matrix(1.33333 0 0 -1.33333 0 682.667)"><path d="M0 0c-112.553 0-203.796-91.243-203.796-203.797h392c8.732 0 15.645 7.435 14.963 16.141C194.939-82.648 107.122 0 0 0" style="fill-opacity:1;fill-rule:nonzero;stroke:none" transform="translate(301.287 247.072)" fill="#fddf30" data-original="#fddf30"></path><path d="M0 0h14.49c8.733 0 15.646 7.435 14.964 16.141-8.228 105.007-96.046 187.656-203.167 187.656-47.24 0-90.725-16.073-125.287-43.049" style="stroke-width:15;stroke-linecap:round;stroke-linejoin:round;stroke-miterlimit:10;stroke-dasharray:none;stroke-opacity:1" transform="translate(475 43.275)" fill="none" stroke="#000000" stroke-width="15" stroke-linecap="round" stroke-linejoin="round" stroke-miterlimit="10" stroke-dasharray="none" stroke-opacity="" data-original="#000000"></path><path d="M0 0c-23.706 0-42.923 19.217-42.923 42.923 0 23.706 19.217 42.923 42.923 42.923 23.706 0 42.923-19.217 42.923-42.923C42.923 19.217 23.706 0 0 0m0 114.796c-39.694 0-71.873-32.179-71.873-71.873S-39.694-28.95 0-28.95 71.873 3.229 71.873 42.923 39.694 114.796 0 114.796" style="fill-opacity:1;fill-rule:nonzero;stroke:none" transform="translate(123.742 163.428)" fill="#fef0ae" data-original="#fef0ae"></path><path d="M0 0c-23.706 0-42.923 19.217-42.923 42.923 0 23.706 19.217 42.923 42.923 42.923 23.706 0 42.923-19.217 42.923-42.923C42.923 19.217 23.706 0 0 0Zm0 114.796c-39.694 0-71.873-32.179-71.873-71.873S-39.694-28.95 0-28.95 71.873 3.229 71.873 42.923 39.694 114.796 0 114.796z" style="stroke-width:15;stroke-linecap:round;stroke-linejoin:round;stroke-miterlimit:10;stroke-dasharray:none;stroke-opacity:1" transform="translate(123.742 163.428)" fill="none" stroke="#000000" stroke-width="15" stroke-linecap="round" stroke-linejoin="round" stroke-miterlimit="10" stroke-dasharray="none" stroke-opacity="" data-original="#000000"></path><path d="m0 0 56.566 22.354a5.63 5.63 0 0 1 3.167 7.305l-8.691 21.99a5.628 5.628 0 0 1-7.304 3.167l-56.567-22.354a5.63 5.63 0 0 1-3.166-7.305l8.69-21.99A5.63 5.63 0 0 1 0 0" style="fill-opacity:1;fill-rule:nonzero;stroke:none" transform="translate(122.853 413.513)" fill="#fb8801" data-original="#fb8801"></path><path d="m0 0 56.566 22.354a5.63 5.63 0 0 1 3.167 7.305l-8.691 21.99a5.628 5.628 0 0 1-7.304 3.167l-56.567-22.354a5.63 5.63 0 0 1-3.166-7.305l8.69-21.99A5.63 5.63 0 0 1 0 0Z" style="stroke-width:15;stroke-linecap:round;stroke-linejoin:round;stroke-miterlimit:10;stroke-dasharray:none;stroke-opacity:1" transform="translate(122.853 413.513)" fill="none" stroke="#000000" stroke-width="15" stroke-linecap="round" stroke-linejoin="round" stroke-miterlimit="10" stroke-dasharray="none" stroke-opacity="" data-original="#000000"></path><path d="m0 0-82.725-32.691a5.63 5.63 0 0 1-3.166-7.305l8.69-21.99a5.63 5.63 0 0 1 7.305-3.167l82.724 32.692a5.63 5.63 0 0 1 3.167 7.305l-8.69 21.99A5.629 5.629 0 0 1 0 0" style="fill-opacity:1;fill-rule:nonzero;stroke:none" transform="translate(93.787 121.113)" fill="#017b4e" data-original="#017b4e"></path><path d="m0 0-32.692 82.725a5.63 5.63 0 0 1-7.305 3.167l-21.99-8.691a5.63 5.63 0 0 1-3.166-7.305l32.692-82.724a5.628 5.628 0 0 1 7.304-3.167l21.99 8.69A5.63 5.63 0 0 1 0 0" style="fill-opacity:1;fill-rule:nonzero;stroke:none" transform="translate(101.594 92.866)" fill="#017b4e" data-original="#017b4e"></path><path d="m0 0-32.692 82.725a5.63 5.63 0 0 1-7.305 3.167l-21.99-8.691a5.63 5.63 0 0 1-3.166-7.305l32.692-82.724a5.628 5.628 0 0 1 7.304-3.167l21.99 8.69A5.63 5.63 0 0 1 0 0Z" style="stroke-width:15;stroke-linecap:round;stroke-linejoin:round;stroke-miterlimit:10;stroke-dasharray:none;stroke-opacity:1" transform="translate(101.594 92.866)" fill="none" stroke="#000000" stroke-width="15" stroke-linecap="round" stroke-linejoin="round" stroke-miterlimit="10" stroke-dasharray="none" stroke-opacity="" data-original="#000000"></path><path d="m0 0-81.611 35.379a5.631 5.631 0 0 1-7.405-2.927l-9.404-21.694a5.629 5.629 0 0 1 2.926-7.404l81.612-35.378a5.629 5.629 0 0 1 7.404 2.925L2.926-7.404A5.629 5.629 0 0 1 0 0" style="fill-opacity:1;fill-rule:nonzero;stroke:none" transform="translate(112.009 109.674)" fill="#81d261" data-original="#81d261"></path><path d="m0 0-81.611 35.379a5.631 5.631 0 0 1-7.405-2.927l-9.404-21.694a5.629 5.629 0 0 1 2.926-7.404l81.612-35.378a5.629 5.629 0 0 1 7.404 2.925L2.926-7.404A5.629 5.629 0 0 1 0 0Z" style="stroke-width:15;stroke-linecap:round;stroke-linejoin:round;stroke-miterlimit:10;stroke-dasharray:none;stroke-opacity:1" transform="translate(112.009 109.674)" fill="none" stroke="#000000" stroke-width="15" stroke-linecap="round" stroke-linejoin="round" stroke-miterlimit="10" stroke-dasharray="none" stroke-opacity="" data-original="#000000"></path><path d="m0 0-82.725-32.691a5.63 5.63 0 0 1-3.166-7.305l8.69-21.99a5.63 5.63 0 0 1 7.305-3.167l82.724 32.692a5.63 5.63 0 0 1 3.167 7.305l-8.69 21.99A5.629 5.629 0 0 1 0 0Z" style="stroke-width:15;stroke-linecap:round;stroke-linejoin:round;stroke-miterlimit:10;stroke-dasharray:none;stroke-opacity:1" transform="translate(93.787 121.113)" fill="none" stroke="#000000" stroke-width="15" stroke-linecap="round" stroke-linejoin="round" stroke-miterlimit="10" stroke-dasharray="none" stroke-opacity="" data-original="#000000"></path><path d="M0 0c-23.706 0-42.923 19.218-42.923 42.924 0 23.705 19.217 42.923 42.923 42.923 23.706 0 42.923-19.218 42.923-42.923C42.923 19.218 23.706 0 0 0m0 114.797c-39.694 0-71.873-32.179-71.873-71.873 0-39.695 32.179-71.873 71.873-71.873S71.873 3.229 71.873 42.924c0 39.694-32.179 71.873-71.873 71.873" style="fill-opacity:1;fill-rule:nonzero;stroke:none" transform="translate(294.135 212.969)" fill="#fef0ae" data-original="#fef0ae"></path><path d="M0 0c-23.706 0-42.923 19.218-42.923 42.924 0 23.705 19.217 42.923 42.923 42.923 23.706 0 42.923-19.218 42.923-42.923C42.923 19.218 23.706 0 0 0Zm18.865 112.295A71.961 71.961 0 0 1 0 114.797c-39.694 0-71.873-32.179-71.873-71.873 0-39.695 32.179-71.873 71.873-71.873S71.873 3.229 71.873 42.924c0 20.329-8.44 38.687-22.008 51.762" style="stroke-width:15;stroke-linecap:round;stroke-linejoin:round;stroke-miterlimit:10;stroke-dasharray:none;stroke-opacity:1" transform="translate(294.135 212.969)" fill="none" stroke="#000000" stroke-width="15" stroke-linecap="round" stroke-linejoin="round" stroke-miterlimit="10" stroke-dasharray="none" stroke-opacity="" data-original="#000000"></path><path d="M0 0c-11.571 1.554-22.607-2.4-30.479-9.839A36.982 36.982 0 0 1-51.116.051c-20.338 2.732-39.041-11.54-41.773-31.878-2.733-20.338 11.54-39.041 31.878-41.774 11.571-1.553 22.607 2.401 30.479 9.839a36.978 36.978 0 0 1 20.637-9.889c20.338-2.733 39.041 11.54 41.773 31.878C34.61-21.436 20.338-2.732 0 0" style="fill-opacity:1;fill-rule:nonzero;stroke:none" transform="translate(395.054 277.087)" fill="#017b4e" data-original="#017b4e"></path><path d="M0 0c-11.571 1.554-22.607-2.4-30.479-9.839A36.982 36.982 0 0 1-51.116.051c-20.338 2.732-39.041-11.54-41.773-31.878-2.733-20.338 11.54-39.041 31.878-41.774 11.571-1.553 22.607 2.401 30.479 9.839a36.978 36.978 0 0 1 20.637-9.889c20.338-2.733 39.041 11.54 41.773 31.878C34.61-21.436 20.338-2.732 0 0Z" style="stroke-width:15;stroke-linecap:round;stroke-linejoin:round;stroke-miterlimit:10;stroke-dasharray:none;stroke-opacity:1" transform="translate(395.054 277.087)" fill="none" stroke="#000000" stroke-width="15" stroke-linecap="round" stroke-linejoin="round" stroke-miterlimit="10" stroke-dasharray="none" stroke-opacity="" data-original="#000000"></path><path d="M0 0c24.829-24.828 64.407-25.917 90.529-3.266a4.473 4.473 0 0 1 .233 6.539L3.273 90.763a4.473 4.473 0 0 1-6.539-.234C-25.917 64.407-24.829 24.829 0 0" style="fill-opacity:1;fill-rule:nonzero;stroke:none" transform="translate(343.824 363.302)" fill="#fd4755" data-original="#fd4755"></path><path d="M0 0c-22.226 22.225-25.412 56.263-9.592 81.895l-14.241 14.24a4.473 4.473 0 0 1-6.539-.234c-22.651-26.122-21.563-65.7 3.266-90.529C-13.901-7.833 3.477-14.321 20.783-14.096A66.308 66.308 0 0 0 0 0" style="fill-opacity:1;fill-rule:nonzero;stroke:none" transform="translate(370.93 357.93)" fill="#fb2b3a" data-original="#fb2b3a"></path><path d="M0 0c24.829-24.828 64.407-25.917 90.529-3.266a4.473 4.473 0 0 1 .233 6.539L3.273 90.763a4.473 4.473 0 0 1-6.539-.234C-25.917 64.407-24.829 24.829 0 0Z" style="stroke-width:15;stroke-linecap:round;stroke-linejoin:round;stroke-miterlimit:10;stroke-dasharray:none;stroke-opacity:1" transform="translate(343.824 363.302)" fill="none" stroke="#000000" stroke-width="15" stroke-linecap="round" stroke-linejoin="round" stroke-miterlimit="10" stroke-dasharray="none" stroke-opacity="" data-original="#000000"></path><path d="m0 0 6.418 6.418" style="stroke-width:15;stroke-linecap:round;stroke-linejoin:round;stroke-miterlimit:10;stroke-dasharray:none;stroke-opacity:1" transform="translate(361.317 382.08)" fill="none" stroke="#000000" stroke-width="15" stroke-linecap="round" stroke-linejoin="round" stroke-miterlimit="10" stroke-dasharray="none" stroke-opacity="" data-original="#000000"></path><path d="M0 0h9.077" style="stroke-width:15;stroke-linecap:round;stroke-linejoin:round;stroke-miterlimit:10;stroke-dasharray:none;stroke-opacity:1" transform="translate(350.262 410.586)" fill="none" stroke="#000000" stroke-width="15" stroke-linecap="round" stroke-linejoin="round" stroke-miterlimit="10" stroke-dasharray="none" stroke-opacity="" data-original="#000000"></path><path d="M0 0v9.077" style="stroke-width:15;stroke-linecap:round;stroke-linejoin:round;stroke-miterlimit:10;stroke-dasharray:none;stroke-opacity:1" transform="translate(389.292 369.74)" fill="none" stroke="#000000" stroke-width="15" stroke-linecap="round" stroke-linejoin="round" stroke-miterlimit="10" stroke-dasharray="none" stroke-opacity="" data-original="#000000"></path><path d="M0 0c0-21.43 17.372-38.802 38.802-38.802C60.231-38.802 77.603-21.43 77.603 0c0 17.759-11.936 32.721-28.22 37.328a38.612 38.612 0 0 1 5.536 19.979c0 21.429-17.372 38.8-38.801 38.8-9.527 0-18.246-3.438-24.999-9.134-7.098 7.811-17.34 12.716-28.726 12.716-21.43 0-38.802-17.372-38.802-38.801 0-21.429 17.372-38.801 38.802-38.801" style="fill-opacity:1;fill-rule:nonzero;stroke:none" transform="translate(404.378 141.753)" fill="#81d261" data-original="#81d261"></path><path d="M0 0a38.66 38.66 0 0 0 25.825-9.842c1.729-1.543 4.263-1.69 6.182-.39a38.606 38.606 0 0 0 21.718 6.651c17.613 0 32.477-11.74 37.215-27.818a38.755 38.755 0 0 1 1.269 15.934C89.85 3.019 74.33 17.387 55.72 18.319c-10.302.517-19.772-2.993-26.994-9.085-7.576 8.338-18.732 13.365-31.04 12.65-18.502-1.073-33.864-15.418-36.177-33.806a38.868 38.868 0 0 1 1.274-15.903C-32.481-11.743-17.616 0 0 0" style="fill-opacity:1;fill-rule:nonzero;stroke:none" transform="translate(366.77 219.491)" fill="#68ca44" data-original="#68ca44"></path><path d="M0 0c0-21.43 17.372-38.802 38.802-38.802C60.231-38.802 77.603-21.43 77.603 0c0 17.759-11.936 32.721-28.22 37.328a38.612 38.612 0 0 1 5.536 19.979c0 21.429-17.372 38.8-38.801 38.8-9.527 0-18.246-3.438-24.999-9.134-7.098 7.811-17.34 12.716-28.726 12.716-21.43 0-38.802-17.372-38.802-38.801 0-21.429 17.372-38.801 38.802-38.801a38.63 38.63 0 0 1 24.999 9.136" style="stroke-width:15;stroke-linecap:round;stroke-linejoin:round;stroke-miterlimit:10;stroke-dasharray:none;stroke-opacity:1" transform="translate(404.378 141.753)" fill="none" stroke="#000000" stroke-width="15" stroke-linecap="round" stroke-linejoin="round" stroke-miterlimit="10" stroke-dasharray="none" stroke-opacity="" data-original="#000000"></path><path d="M0 0c0-15.856-12.854-28.711-28.712-28.711-15.857 0-28.711 12.855-28.711 28.711 0 15.857 12.854 28.712 28.711 28.712C-12.854 28.712 0 15.857 0 0" style="fill-opacity:1;fill-rule:nonzero;stroke:none" transform="translate(465.127 104.64)" fill="#fd9a01" data-original="#fd9a01"></path><path d="M0 0c0-15.856-12.854-28.711-28.712-28.711-15.857 0-28.711 12.855-28.711 28.711 0 15.857 12.854 28.712 28.711 28.712C-12.854 28.712 0 15.857 0 0Z" style="stroke-width:15;stroke-linecap:round;stroke-linejoin:round;stroke-miterlimit:10;stroke-dasharray:none;stroke-opacity:1" transform="translate(465.127 104.64)" fill="none" stroke="#000000" stroke-width="15" stroke-linecap="round" stroke-linejoin="round" stroke-miterlimit="10" stroke-dasharray="none" stroke-opacity="" data-original="#000000"></path><path d="M0 0c0 15.857-12.854 28.712-28.711 28.712-15.858 0-28.712-12.855-28.712-28.712a28.579 28.579 0 0 1 5.919-17.452h45.585A28.579 28.579 0 0 1 0 0" style="fill-opacity:1;fill-rule:nonzero;stroke:none" transform="translate(480.89 60.727)" fill="#fb8801" data-original="#fb8801"></path><path d="M0 0c0 15.857-12.854 28.712-28.711 28.712-15.858 0-28.712-12.855-28.712-28.712a28.579 28.579 0 0 1 5.919-17.452h45.585A28.579 28.579 0 0 1 0 0Z" style="stroke-width:15;stroke-linecap:round;stroke-linejoin:round;stroke-miterlimit:10;stroke-dasharray:none;stroke-opacity:1" transform="translate(480.89 60.727)" fill="none" stroke="#000000" stroke-width="15" stroke-linecap="round" stroke-linejoin="round" stroke-miterlimit="10" stroke-dasharray="none" stroke-opacity="" data-original="#000000"></path><path d="M0 0a30.941 30.941 0 0 1-9.574 13.574c-13.285 10.88-32.874 8.93-43.753-4.354a30.963 30.963 0 0 1-7.028-20.136c-8.447-.434-16.687-4.292-22.467-11.352-10.88-13.284-8.93-32.873 4.355-43.752 13.284-10.878 32.873-8.929 43.752 4.355a30.954 30.954 0 0 1 7.028 20.136 31.095 31.095 0 0 1 16.183 5.539A30.939 30.939 0 0 1-1.93-49.564c13.284-10.879 32.873-8.929 43.752 4.355 10.88 13.284 8.93 32.873-4.355 43.752C26.458 7.56 11.124 7.756 0 0" style="fill-opacity:1;fill-rule:nonzero;stroke:none" transform="translate(223.695 270.588)" fill="#81d261" data-original="#81d261"></path><path d="M0 0a30.97 30.97 0 0 0 18.512 10.895c2.21.399 3.896 2.163 4.147 4.395a30.92 30.92 0 0 0 6.837 16.197c6.579 8.034 16.342 11.913 25.97 11.326a31.106 31.106 0 0 1-3.663 3.559c-13.284 10.88-32.873 8.93-43.752-4.354a30.958 30.958 0 0 1-7.029-20.136c-8.864-.455-17.501-4.683-23.307-12.422-9.438-12.584-7.864-30.576 3.631-41.314 5.549-5.182 12.404-7.914 19.331-8.338C-9.187-28.968-9.778-11.939 0 0" style="fill-opacity:1;fill-rule:nonzero;stroke:none" transform="translate(162.317 237.79)" fill="#68ca44" data-original="#68ca44"></path><path d="M0 0a30.941 30.941 0 0 1-9.574 13.574c-13.285 10.88-32.874 8.93-43.753-4.354a30.963 30.963 0 0 1-7.028-20.136c-8.447-.434-16.687-4.292-22.467-11.352-10.88-13.284-8.93-32.873 4.355-43.752 13.284-10.878 32.873-8.929 43.752 4.355a30.954 30.954 0 0 1 7.028 20.136 31.095 31.095 0 0 1 16.183 5.539A30.939 30.939 0 0 1-1.93-49.564c13.284-10.879 32.873-8.929 43.752 4.355 10.88 13.284 8.93 32.873-4.355 43.752C26.458 7.56 11.124 7.756 0 0Z" style="stroke-width:15;stroke-linecap:round;stroke-linejoin:round;stroke-miterlimit:10;stroke-dasharray:none;stroke-opacity:1" transform="translate(223.695 270.588)" fill="none" stroke="#000000" stroke-width="15" stroke-linecap="round" stroke-linejoin="round" stroke-miterlimit="10" stroke-dasharray="none" stroke-opacity="" data-original="#000000"></path><path d="M0 0c-107.122 0-194.939-82.648-203.167-187.656-.682-8.706 6.231-16.141 14.964-16.141h391.999C203.796-91.243 112.554 0 0 0" style="fill-opacity:1;fill-rule:nonzero;stroke:none" transform="translate(245.532 247.072)" fill="#fed402" data-original="#fed402"></path><path d="M0 0c7.661 97.78 84.337 176.158 181.344 186.487a206.007 206.007 0 0 1-21.858 1.169C52.364 187.656-35.454 105.008-43.681 0c-.682-8.706 6.231-16.141 14.964-16.141h43.68C6.231-16.141-.682-8.706 0 0" style="fill-opacity:1;fill-rule:nonzero;stroke:none" transform="translate(86.046 59.416)" fill="#fac600" data-original="#fac600"></path><path d="M0 0c-36.242 33.132-84.494 53.344-137.468 53.344-107.121 0-194.939-82.649-203.167-187.656-.681-8.707 6.231-16.141 14.964-16.141H-263" style="stroke-width:15;stroke-linecap:round;stroke-linejoin:round;stroke-miterlimit:10;stroke-dasharray:none;stroke-opacity:1" transform="translate(383 193.728)" fill="none" stroke="#000000" stroke-width="15" stroke-linecap="round" stroke-linejoin="round" stroke-miterlimit="10" stroke-dasharray="none" stroke-opacity="" data-original="#000000"></path><path d="M0 0h293.329c0 46.531-15.595 89.42-41.841 123.725" style="stroke-width:15;stroke-linecap:round;stroke-linejoin:round;stroke-miterlimit:10;stroke-dasharray:none;stroke-opacity:1" transform="translate(156 43.275)" fill="none" stroke="#000000" stroke-width="15" stroke-linecap="round" stroke-linejoin="round" stroke-miterlimit="10" stroke-dasharray="none" stroke-opacity="" data-original="#000000"></path><path d="M0 0c2.518 1.321 3.706 4.332 2.651 6.973a41.422 41.422 0 0 1-16.398 19.712 41.427 41.427 0 0 1-24.839 6.359c-2.838-.18-5.048-2.545-5.163-5.386l-1.687-41.973c-.174-4.331 4.405-7.226 8.242-5.211z" style="fill-opacity:1;fill-rule:nonzero;stroke:none" transform="translate(269.58 375.251)" fill="#fd4755" data-original="#fd4755"></path><path d="M0 0c2.518 1.321 3.706 4.332 2.651 6.973a41.422 41.422 0 0 1-16.398 19.712 41.427 41.427 0 0 1-24.839 6.359c-2.838-.18-5.048-2.545-5.163-5.386l-1.687-41.973c-.174-4.331 4.405-7.226 8.242-5.211z" style="stroke-width:15;stroke-linecap:round;stroke-linejoin:round;stroke-miterlimit:10;stroke-dasharray:none;stroke-opacity:1" transform="translate(269.58 375.251)" fill="none" stroke="#000000" stroke-width="15" stroke-linecap="round" stroke-linejoin="round" stroke-miterlimit="10" stroke-dasharray="none" stroke-opacity="" data-original="#000000"></path><path d="M0 0c0-11.193-9.074-20.267-20.267-20.267S-40.534-11.193-40.534 0s9.074 20.268 20.267 20.268S0 11.193 0 0" style="fill-opacity:1;fill-rule:nonzero;stroke:none" transform="translate(114.922 348.407)" fill="#fd4755" data-original="#fd4755"></path><path d="M0 0c0-11.193-9.074-20.267-20.267-20.267S-40.534-11.193-40.534 0s9.074 20.268 20.267 20.268S0 11.193 0 0Z" style="stroke-width:15;stroke-linecap:round;stroke-linejoin:round;stroke-miterlimit:10;stroke-dasharray:none;stroke-opacity:1" transform="translate(114.922 348.407)" fill="none" stroke="#000000" stroke-width="15" stroke-linecap="round" stroke-linejoin="round" stroke-miterlimit="10" stroke-dasharray="none" stroke-opacity="" data-original="#000000"></path><path d="M0 0c-9.242 9.241-24.198 9.241-33.439 0" style="stroke-width:15;stroke-linecap:round;stroke-linejoin:round;stroke-miterlimit:10;stroke-dasharray:none;stroke-opacity:1" transform="translate(352.703 102.785)" fill="none" stroke="#000000" stroke-width="15" stroke-linecap="round" stroke-linejoin="round" stroke-miterlimit="10" stroke-dasharray="none" stroke-opacity="" data-original="#000000"></path><path d="M0 0c-9.241 9.241-24.197 9.241-33.439 0" style="stroke-width:15;stroke-linecap:round;stroke-linejoin:round;stroke-miterlimit:10;stroke-dasharray:none;stroke-opacity:1" transform="translate(258.463 102.785)" fill="none" stroke="#000000" stroke-width="15" stroke-linecap="round" stroke-linejoin="round" stroke-miterlimit="10" stroke-dasharray="none" stroke-opacity="" data-original="#000000"></path><path d="M0 0c-9.242 9.241-24.198 9.241-33.439 0" style="stroke-width:15;stroke-linecap:round;stroke-linejoin:round;stroke-miterlimit:10;stroke-dasharray:none;stroke-opacity:1" transform="translate(164.223 102.785)" fill="none" stroke="#000000" stroke-width="15" stroke-linecap="round" stroke-linejoin="round" stroke-miterlimit="10" stroke-dasharray="none" stroke-opacity="" data-original="#000000"></path><path d="M0 0c-9.241 9.241-24.197 9.241-33.439 0" style="stroke-width:15;stroke-linecap:round;stroke-linejoin:round;stroke-miterlimit:10;stroke-dasharray:none;stroke-opacity:1" transform="translate(321.856 167.14)" fill="none" stroke="#000000" stroke-width="15" stroke-linecap="round" stroke-linejoin="round" stroke-miterlimit="10" stroke-dasharray="none" stroke-opacity="" data-original="#000000"></path><path d="M0 0c-9.242 9.241-24.198 9.241-33.439 0" style="stroke-width:15;stroke-linecap:round;stroke-linejoin:round;stroke-miterlimit:10;stroke-dasharray:none;stroke-opacity:1" transform="translate(215.677 167.14)" fill="none" stroke="#000000" stroke-width="15" stroke-linecap="round" stroke-linejoin="round" stroke-miterlimit="10" stroke-dasharray="none" stroke-opacity="" data-original="#000000"></path></g></g></svg>